<mxfile host="www.draw.io" modified="2019-11-03T03:07:05.917Z" agent="Mozilla/5.0 (Macintosh; Intel Mac OS X 10_14_6) AppleWebKit/537.36 (KHTML, like Gecko) Chrome/78.0.3904.87 Safari/537.36" etag="4v0QdXVwQRQFuX7vB-kF" version="12.1.9" type="github" pages="1">
  <diagram id="Oyz3lQpX8JYGsfgc6z8X" name="Page-1">
    <mxGraphModel dx="982" dy="1821" grid="1" gridSize="10" guides="1" tooltips="1" connect="1" arrows="1" fold="1" page="1" pageScale="1" pageWidth="827" pageHeight="1169" math="0" shadow="0">
      <root>
        <mxCell id="0"/>
        <mxCell id="1" parent="0"/>
        <mxCell id="LrmKpYSQwzqb-qIM3WHP-8" value="" style="ellipse;whiteSpace=wrap;html=1;aspect=fixed;fillColor=#00FFFF;" parent="1" vertex="1">
          <mxGeometry x="50.5" y="-50" width="789" height="789" as="geometry"/>
        </mxCell>
        <mxCell id="LrmKpYSQwzqb-qIM3WHP-7" value="" style="ellipse;whiteSpace=wrap;html=1;aspect=fixed;fillColor=#80FF00;" parent="1" vertex="1">
          <mxGeometry x="133.5" y="42" width="623" height="623" as="geometry"/>
        </mxCell>
        <mxCell id="LrmKpYSQwzqb-qIM3WHP-6" value="" style="ellipse;whiteSpace=wrap;html=1;aspect=fixed;fillColor=#FF9999;" parent="1" vertex="1">
          <mxGeometry x="222.5" y="131" width="445" height="445" as="geometry"/>
        </mxCell>
        <mxCell id="LrmKpYSQwzqb-qIM3WHP-5" value="" style="ellipse;whiteSpace=wrap;html=1;aspect=fixed;fillColor=#FFFF99;" parent="1" vertex="1">
          <mxGeometry x="310" y="220" width="270" height="270" as="geometry"/>
        </mxCell>
        <mxCell id="eKpWdof3CqMlDR0zfwah-1" value="数据拉取" style="ellipse;whiteSpace=wrap;html=1;aspect=fixed;fillColor=#FF66FF;" vertex="1" parent="1">
          <mxGeometry x="405" y="250" width="80" height="80" as="geometry"/>
        </mxCell>
        <mxCell id="eKpWdof3CqMlDR0zfwah-2" value="风险计算" style="ellipse;whiteSpace=wrap;html=1;aspect=fixed;fillColor=#3333FF;" vertex="1" parent="1">
          <mxGeometry x="350" y="360" width="80" height="80" as="geometry"/>
        </mxCell>
        <mxCell id="eKpWdof3CqMlDR0zfwah-3" value="模型组装" style="ellipse;whiteSpace=wrap;html=1;aspect=fixed;fillColor=#9933FF;" vertex="1" parent="1">
          <mxGeometry x="470" y="360" width="80" height="80" as="geometry"/>
        </mxCell>
        <mxCell id="eKpWdof3CqMlDR0zfwah-4" value="" style="shape=flexArrow;endArrow=classic;html=1;entryX=0;entryY=1;entryDx=0;entryDy=0;exitX=0.5;exitY=0;exitDx=0;exitDy=0;fillColor=#CCFFFF;" edge="1" parent="1" source="eKpWdof3CqMlDR0zfwah-2" target="eKpWdof3CqMlDR0zfwah-1">
          <mxGeometry width="50" height="50" relative="1" as="geometry">
            <mxPoint x="360" y="430" as="sourcePoint"/>
            <mxPoint x="210" y="730" as="targetPoint"/>
          </mxGeometry>
        </mxCell>
        <mxCell id="eKpWdof3CqMlDR0zfwah-5" value="" style="shape=flexArrow;endArrow=classic;html=1;entryX=0.5;entryY=0;entryDx=0;entryDy=0;exitX=1;exitY=1;exitDx=0;exitDy=0;fillColor=#CCFFFF;" edge="1" parent="1" source="eKpWdof3CqMlDR0zfwah-1" target="eKpWdof3CqMlDR0zfwah-3">
          <mxGeometry width="50" height="50" relative="1" as="geometry">
            <mxPoint x="400" y="370" as="sourcePoint"/>
            <mxPoint x="426.7157287525381" y="328.2842712474619" as="targetPoint"/>
          </mxGeometry>
        </mxCell>
        <mxCell id="eKpWdof3CqMlDR0zfwah-6" value="" style="shape=flexArrow;endArrow=classic;html=1;entryX=1;entryY=0.5;entryDx=0;entryDy=0;exitX=0;exitY=0.5;exitDx=0;exitDy=0;fillColor=#CCFFFF;" edge="1" parent="1" source="eKpWdof3CqMlDR0zfwah-3" target="eKpWdof3CqMlDR0zfwah-2">
          <mxGeometry width="50" height="50" relative="1" as="geometry">
            <mxPoint x="410" y="380" as="sourcePoint"/>
            <mxPoint x="436.7157287525381" y="338.2842712474619" as="targetPoint"/>
          </mxGeometry>
        </mxCell>
        <mxCell id="eKpWdof3CqMlDR0zfwah-14" value="ZdalProxy" style="text;html=1;strokeColor=none;fillColor=none;align=center;verticalAlign=middle;whiteSpace=wrap;rounded=0;" vertex="1" parent="1">
          <mxGeometry x="300" y="220" width="40" height="20" as="geometry"/>
        </mxCell>
        <mxCell id="eKpWdof3CqMlDR0zfwah-15" value="Skyline" style="text;html=1;resizable=0;points=[];autosize=1;align=left;verticalAlign=top;spacingTop=-4;" vertex="1" parent="1">
          <mxGeometry x="365" y="180" width="50" height="20" as="geometry"/>
        </mxCell>
        <mxCell id="eKpWdof3CqMlDR0zfwah-16" value="DRC" style="text;html=1;resizable=0;points=[];autosize=1;align=left;verticalAlign=top;spacingTop=-4;" vertex="1" parent="1">
          <mxGeometry x="470" y="180" width="40" height="20" as="geometry"/>
        </mxCell>
        <mxCell id="eKpWdof3CqMlDR0zfwah-17" value="Interface" style="text;html=1;resizable=0;points=[];autosize=1;align=left;verticalAlign=top;spacingTop=-4;" vertex="1" parent="1">
          <mxGeometry x="537.5" y="210" width="60" height="20" as="geometry"/>
        </mxCell>
        <mxCell id="eKpWdof3CqMlDR0zfwah-18" value="模型规则解析" style="text;html=1;resizable=0;points=[];autosize=1;align=left;verticalAlign=top;spacingTop=-4;" vertex="1" parent="1">
          <mxGeometry x="550" y="450" width="90" height="20" as="geometry"/>
        </mxCell>
        <mxCell id="eKpWdof3CqMlDR0zfwah-19" value="多引擎数据同步" style="text;html=1;resizable=0;points=[];autosize=1;align=left;verticalAlign=top;spacingTop=-4;" vertex="1" parent="1">
          <mxGeometry x="580" y="353.5" width="100" height="20" as="geometry"/>
        </mxCell>
        <mxCell id="eKpWdof3CqMlDR0zfwah-20" value="索引优化" style="text;html=1;resizable=0;points=[];autosize=1;align=left;verticalAlign=top;spacingTop=-4;" vertex="1" parent="1">
          <mxGeometry x="480" y="510" width="60" height="20" as="geometry"/>
        </mxCell>
        <mxCell id="eKpWdof3CqMlDR0zfwah-21" value="数据反射" style="text;html=1;resizable=0;points=[];autosize=1;align=left;verticalAlign=top;spacingTop=-4;" vertex="1" parent="1">
          <mxGeometry x="312.5" y="490" width="60" height="20" as="geometry"/>
        </mxCell>
        <mxCell id="eKpWdof3CqMlDR0zfwah-22" value="注解规则解析" style="text;html=1;resizable=0;points=[];autosize=1;align=left;verticalAlign=top;spacingTop=-4;" vertex="1" parent="1">
          <mxGeometry x="222.5" y="350" width="90" height="20" as="geometry"/>
        </mxCell>
        <mxCell id="eKpWdof3CqMlDR0zfwah-23" value="计算运行时" style="text;html=1;resizable=0;points=[];autosize=1;align=left;verticalAlign=top;spacingTop=-4;" vertex="1" parent="1">
          <mxGeometry x="250" y="420" width="80" height="20" as="geometry"/>
        </mxCell>
        <mxCell id="eKpWdof3CqMlDR0zfwah-24" value="facade" style="text;html=1;resizable=0;points=[];autosize=1;align=left;verticalAlign=top;spacingTop=-4;" vertex="1" parent="1">
          <mxGeometry x="200" y="500" width="50" height="20" as="geometry"/>
        </mxCell>
        <mxCell id="eKpWdof3CqMlDR0zfwah-25" value="trigger" style="text;html=1;resizable=0;points=[];autosize=1;align=left;verticalAlign=top;spacingTop=-4;" vertex="1" parent="1">
          <mxGeometry x="160" y="390" width="50" height="20" as="geometry"/>
        </mxCell>
        <mxCell id="eKpWdof3CqMlDR0zfwah-27" value="定时任务" style="text;html=1;resizable=0;points=[];autosize=1;align=left;verticalAlign=top;spacingTop=-4;" vertex="1" parent="1">
          <mxGeometry x="252.5" y="131" width="60" height="20" as="geometry"/>
        </mxCell>
        <mxCell id="eKpWdof3CqMlDR0zfwah-28" value="手动接口" style="text;html=1;resizable=0;points=[];autosize=1;align=left;verticalAlign=top;spacingTop=-4;" vertex="1" parent="1">
          <mxGeometry x="415" y="80" width="60" height="20" as="geometry"/>
        </mxCell>
        <mxCell id="eKpWdof3CqMlDR0zfwah-29" value="消息订阅" style="text;html=1;resizable=0;points=[];autosize=1;align=left;verticalAlign=top;spacingTop=-4;" vertex="1" parent="1">
          <mxGeometry x="537.5" y="111" width="60" height="20" as="geometry"/>
        </mxCell>
        <mxCell id="eKpWdof3CqMlDR0zfwah-30" value="位点统计" style="text;html=1;resizable=0;points=[];autosize=1;align=left;verticalAlign=top;spacingTop=-4;" vertex="1" parent="1">
          <mxGeometry x="640" y="490" width="60" height="20" as="geometry"/>
        </mxCell>
        <mxCell id="eKpWdof3CqMlDR0zfwah-31" value="大禹" style="text;html=1;resizable=0;points=[];autosize=1;align=left;verticalAlign=top;spacingTop=-4;" vertex="1" parent="1">
          <mxGeometry x="260" y="29" width="40" height="20" as="geometry"/>
        </mxCell>
        <mxCell id="eKpWdof3CqMlDR0zfwah-32" value="Antpim" style="text;html=1;resizable=0;points=[];autosize=1;align=left;verticalAlign=top;spacingTop=-4;" vertex="1" parent="1">
          <mxGeometry x="365" y="-10" width="50" height="20" as="geometry"/>
        </mxCell>
        <mxCell id="eKpWdof3CqMlDR0zfwah-33" value="omc" style="text;html=1;resizable=0;points=[];autosize=1;align=left;verticalAlign=top;spacingTop=-4;" vertex="1" parent="1">
          <mxGeometry x="485" y="-10" width="40" height="20" as="geometry"/>
        </mxCell>
        <mxCell id="eKpWdof3CqMlDR0zfwah-34" value="tairmanager" style="text;html=1;resizable=0;points=[];autosize=1;align=left;verticalAlign=top;spacingTop=-4;" vertex="1" parent="1">
          <mxGeometry x="580" y="29" width="80" height="20" as="geometry"/>
        </mxCell>
        <mxCell id="eKpWdof3CqMlDR0zfwah-35" value="skyline client" style="text;html=1;resizable=0;points=[];autosize=1;align=left;verticalAlign=top;spacingTop=-4;" vertex="1" parent="1">
          <mxGeometry x="676.5" y="110" width="80" height="20" as="geometry"/>
        </mxCell>
        <mxCell id="eKpWdof3CqMlDR0zfwah-36" value="lindorm" style="text;html=1;resizable=0;points=[];autosize=1;align=left;verticalAlign=top;spacingTop=-4;" vertex="1" parent="1">
          <mxGeometry x="770" y="430" width="50" height="20" as="geometry"/>
        </mxCell>
        <mxCell id="eKpWdof3CqMlDR0zfwah-37" value="oceanbase" style="text;html=1;resizable=0;points=[];autosize=1;align=left;verticalAlign=top;spacingTop=-4;" vertex="1" parent="1">
          <mxGeometry x="716.5" y="522" width="70" height="20" as="geometry"/>
        </mxCell>
        <mxCell id="eKpWdof3CqMlDR0zfwah-38" value="wide column" style="text;html=1;resizable=0;points=[];autosize=1;align=left;verticalAlign=top;spacingTop=-4;" vertex="1" parent="1">
          <mxGeometry x="640" y="600" width="80" height="20" as="geometry"/>
        </mxCell>
        <mxCell id="eKpWdof3CqMlDR0zfwah-41" value="servermesh" style="text;html=1;resizable=0;points=[];autosize=1;align=left;verticalAlign=top;spacingTop=-4;" vertex="1" parent="1">
          <mxGeometry x="80" y="480" width="80" height="20" as="geometry"/>
        </mxCell>
      </root>
    </mxGraphModel>
  </diagram>
</mxfile>
